<?xml version="1.0" standalone="no"?><svg xmlns="http://www.w3.org/2000/svg" viewBox="0 0 1440 320"><path fill="#0099ff" fill-opacity="1" d="M0,288L6.9,266.7C13.7,245,27,203,41,197.3C54.9,192,69,224,82,197.3C96,171,110,85,123,74.7C137.1,64,151,128,165,154.7C178.3,181,192,171,206,181.3C219.4,192,233,224,247,240C260.6,256,274,256,288,261.3C301.7,267,315,277,329,266.7C342.9,256,357,224,370,197.3C384,171,398,149,411,165.3C425.1,181,439,235,453,218.7C466.3,203,480,117,494,90.7C507.4,64,521,96,535,117.3C548.6,139,562,149,576,138.7C589.7,128,603,96,617,80C630.9,64,645,64,658,69.3C672,75,686,85,699,106.7C713.1,128,727,160,741,176C754.3,192,768,192,782,165.3C795.4,139,809,85,823,85.3C836.6,85,850,139,864,154.7C877.7,171,891,149,905,149.3C918.9,149,933,171,946,181.3C960,192,974,192,987,165.3C1001.1,139,1015,85,1029,90.7C1042.3,96,1056,160,1070,170.7C1083.4,181,1097,139,1111,112C1124.6,85,1138,75,1152,106.7C1165.7,139,1179,213,1193,229.3C1206.9,245,1221,203,1234,208C1248,213,1262,267,1275,282.7C1289.1,299,1303,277,1317,266.7C1330.3,256,1344,256,1358,266.7C1371.4,277,1385,299,1399,298.7C1412.6,299,1426,277,1433,266.7L1440,256L1440,320L1433.1,320C1426.3,320,1413,320,1399,320C1385.1,320,1371,320,1358,320C1344,320,1330,320,1317,320C1302.9,320,1289,320,1275,320C1261.7,320,1248,320,1234,320C1220.6,320,1207,320,1193,320C1179.4,320,1166,320,1152,320C1138.3,320,1125,320,1111,320C1097.1,320,1083,320,1070,320C1056,320,1042,320,1029,320C1014.9,320,1001,320,987,320C973.7,320,960,320,946,320C932.6,320,919,320,905,320C891.4,320,878,320,864,320C850.3,320,837,320,823,320C809.1,320,795,320,782,320C768,320,754,320,741,320C726.9,320,713,320,699,320C685.7,320,672,320,658,320C644.6,320,631,320,617,320C603.4,320,590,320,576,320C562.3,320,549,320,535,320C521.1,320,507,320,494,320C480,320,466,320,453,320C438.9,320,425,320,411,320C397.7,320,384,320,370,320C356.6,320,343,320,329,320C315.4,320,302,320,288,320C274.3,320,261,320,247,320C233.1,320,219,320,206,320C192,320,178,320,165,320C150.9,320,137,320,123,320C109.7,320,96,320,82,320C68.6,320,55,320,41,320C27.4,320,14,320,7,320L0,320Z"></path></svg>